<svg width="653" height="199" viewBox="0 0 653 199" fill="none" xmlns="http://www.w3.org/2000/svg">
<path d="M309.08 89.8116L278.792 42.6914H288.837L320.162 90.8543H320.334L350.468 42.6914H360.175L330.391 90.0799C327.369 94.8913 327.393 101.002 330.465 105.789L362.731 156.092H352.342L319.315 104.545H319.143L285.771 156.092H276.236L309.03 105.734C312.182 100.892 312.2 94.6718 309.08 89.8116Z" fill="#D7E2E6"/>
<path d="M382.826 42.6914H392.189V156.092H382.826V42.6914Z" fill="#D7E2E6"/>
<path d="M414.66 100.658V98.1211C414.66 61.7885 433.558 41 464.208 41C494.858 41 513.073 61.1116 513.073 98.1211V100.658C513.073 136.655 494.176 157.779 463.87 157.779C433.564 157.779 414.666 137.667 414.666 100.658H414.66ZM503.194 102.012V98.1272C503.194 67.3683 490.256 48.9459 463.692 48.7812C438.663 48.7812 424.533 67.0329 424.533 96.438V100.493C424.533 131.252 437.471 150.01 464.036 150.01C490.6 150.01 503.194 131.588 503.194 102.012Z" fill="#D7E2E6"/>
<path d="M535.377 42.6914H567.213C592.414 42.6914 603.65 54.8572 603.65 73.6211C603.65 89.6774 595.989 99.6478 579.304 103.532V104.038L611.311 156.092H600.757L570.107 105.728H557.34C550.288 105.728 544.568 111.405 544.568 118.406V156.092H535.371V42.6914H535.377ZM566.875 98.1294C587.309 98.1294 593.944 88.3297 593.944 73.6272C593.944 58.9246 586.455 50.4726 566.703 50.4726H544.568V98.1294H566.869H566.875Z" fill="#D7E2E6"/>
<path d="M253.971 156.368L230.779 74.0316C227.701 63.122 223.659 52.615 214.966 49.6635C206.617 46.834 197.125 52.6882 192.063 59.9449C187.885 65.9333 185.526 72.9522 183.026 80.3797C182.135 83.0263 181.213 85.7583 180.212 88.4353C175.002 102.284 167.968 110.986 158.71 115.047C148.708 119.438 136.255 118.151 121.713 111.23C118.998 109.937 116.307 108.534 113.696 107.18C105.98 103.168 98.6937 99.3814 90.7256 98.0765C78.6597 96.1007 64.3331 98.1618 59.5227 107.217C57.5322 110.967 56.6475 115.273 55.6216 120.255C54.2393 126.999 52.6665 134.646 47.7947 142.476L41 138.311C45.1284 131.677 46.4862 125.066 47.7947 118.669C48.8944 113.321 49.9265 108.272 52.4515 103.515C55.7076 97.3813 61.8388 93.0211 70.1817 90.9112C76.7307 89.2525 84.4899 89.0146 92.0219 90.2526C101.262 91.7649 109.463 96.0336 117.401 100.155C119.944 101.479 122.58 102.845 125.16 104.076C137.502 109.949 147.707 111.199 155.478 107.79C162.666 104.638 168.306 97.3995 172.723 85.6546C173.681 83.1117 174.578 80.4407 175.445 77.8612C178.013 70.2324 180.667 62.3415 185.495 55.4262C189.034 50.3526 193.937 46.1754 199.288 43.6507C205.486 40.7298 211.802 40.2175 217.546 42.1628C229.735 46.2973 234.803 58.896 238.471 71.8911L262.627 156.368H253.971Z" fill="#D7E2E6"/>
</svg>
